<svg xmlns="http://www.w3.org/2000/svg" xmlns:xlink="http://www.w3.org/1999/xlink" width="1366" zoomAndPan="magnify" viewBox="0 0 1024.5 576" height="768" preserveAspectRatio="xMidYMid meet" version="1.0"><defs><g/></defs><g fill="#ffffff" fill-opacity="1"><g transform="translate(117.841737, 308.451434)"><g><path d="M 21.570312 -30.347656 L 37.886719 -30.347656 C 44.378906 -30.347656 48.671875 -27.582031 48.671875 -20.613281 C 48.671875 -13.550781 43.421875 -11.644531 37.601562 -11.644531 L 21.570312 -11.644531 Z M 6.585938 0 L 39.605469 0 C 51.917969 0 63.65625 -5.917969 63.65625 -19.753906 C 63.65625 -28.25 59.550781 -34.644531 51.152344 -37.03125 C 57.261719 -39.988281 60.410156 -44.378906 60.410156 -51.25 C 60.410156 -63.941406 51.632812 -68.140625 38.652344 -68.140625 L 6.585938 -68.140625 Z M 21.570312 -56.5 L 35.597656 -56.5 C 40.941406 -56.5 45.90625 -55.066406 45.90625 -48.671875 C 45.90625 -42.945312 42.085938 -40.5625 36.742188 -40.5625 L 21.570312 -40.5625 Z M 21.570312 -56.5 "/></g></g></g><g fill="#ffffff" fill-opacity="1"><g transform="translate(204.974883, 308.451434)"><g><path d="M 13.742188 0 L 20.902344 -15.078125 L 55.351562 -15.078125 L 62.035156 0 L 76.539062 0 L 46.097656 -68.046875 L 31.015625 -68.046875 L 0.09375 0 Z M 38.84375 -55.257812 L 49.914062 -28.917969 L 27.292969 -28.917969 L 38.746094 -55.257812 Z M 38.84375 -55.257812 "/></g></g></g><g fill="#ffffff" fill-opacity="1"><g transform="translate(301.937823, 308.451434)"><g><path d="M 71.101562 -36.363281 C 59.363281 -36.363281 45.90625 -36.457031 36.265625 -36.457031 L 36.265625 -23.859375 C 36.265625 -23.765625 37.125 -23.765625 38.9375 -23.765625 C 42.753906 -23.765625 49.722656 -23.859375 52.777344 -23.859375 L 54.304688 -23.859375 C 51.535156 -17.371094 43.902344 -13.550781 36.265625 -13.550781 C 24.8125 -13.550781 15.652344 -22.617188 15.652344 -34.167969 C 15.652344 -45.617188 24.8125 -54.78125 36.265625 -54.78125 C 43.902344 -54.78125 50.390625 -50.867188 53.921875 -44.761719 C 60.601562 -48.101562 61.078125 -48.386719 67.09375 -51.441406 C 60.984375 -62.035156 49.4375 -69.382812 36.265625 -69.382812 C 16.890625 -69.382812 1.050781 -53.539062 1.050781 -34.167969 C 1.050781 -14.695312 16.890625 1.144531 36.265625 1.144531 C 49.53125 1.144531 61.367188 -6.203125 67.1875 -17.179688 C 70.71875 -21.757812 71.101562 -34.355469 71.101562 -36.363281 Z M 71.101562 -36.363281 "/></g></g></g><g fill="#ffffff" fill-opacity="1"><g transform="translate(394.3199, 308.451434)"><g><path d="M 2.289062 -22.617188 C 2.289062 -5.820312 16.035156 1.621094 31.304688 1.621094 C 49.914062 1.621094 59.648438 -7.730469 59.648438 -20.234375 C 59.648438 -35.691406 44.472656 -38.84375 39.414062 -40.082031 C 22.332031 -44.1875 19.085938 -45.332031 19.085938 -50.390625 C 19.085938 -56.117188 24.621094 -58.121094 29.394531 -58.121094 C 34.070312 -58.121094 41.039062 -57.835938 42.851562 -49.914062 L 57.359375 -47.8125 C 57.359375 -63.5625 44.28125 -69.765625 30.0625 -69.765625 C 17.75 -69.765625 4.582031 -63.179688 4.582031 -49.148438 C 4.582031 -23.667969 45.140625 -33.019531 45.140625 -18.515625 C 45.140625 -11.546875 37.125 -10.019531 31.875 -10.019531 C 26.339844 -10.019531 18.324219 -11.261719 16.796875 -20.234375 Z M 2.289062 -22.617188 "/></g></g></g><g fill="#ffffff" fill-opacity="1"><g transform="translate(476.204131, 308.451434)"><g><path d="M 19.375 -27.199219 L 50.484375 -27.199219 L 50.484375 -40.464844 L 19.375 -40.464844 L 19.375 -55.832031 L 54.589844 -55.832031 L 54.589844 -68.429688 L 4.867188 -68.429688 L 4.867188 -0.09375 L 57.835938 -0.09375 L 57.835938 -12.691406 L 19.375 -12.691406 Z M 19.375 -27.199219 "/></g></g></g><g fill="#ffffff" fill-opacity="1"><g transform="translate(558.183791, 308.451434)"><g><path d="M 13.742188 0 L 20.902344 -15.078125 L 55.351562 -15.078125 L 62.035156 0 L 76.539062 0 L 46.097656 -68.046875 L 31.015625 -68.046875 L 0.09375 0 Z M 38.84375 -55.257812 L 49.914062 -28.917969 L 27.292969 -28.917969 L 38.746094 -55.257812 Z M 38.84375 -55.257812 "/></g></g></g><g fill="#ffffff" fill-opacity="1"><g transform="translate(655.146723, 308.451434)"><g><path d="M 44.855469 -25.195312 C 56.210938 -27.675781 61.078125 -37.03125 61.078125 -46.285156 C 61.078125 -57.359375 54.496094 -68.140625 37.316406 -68.140625 L 6.585938 -68.140625 L 6.585938 0.09375 L 21.664062 0.09375 L 21.664062 -24.433594 L 29.011719 -24.433594 L 46.191406 0.09375 L 64.515625 0.09375 L 45.429688 -25.195312 Z M 33.308594 -56.5 C 40.464844 -56.5 46.382812 -55.164062 46.382812 -46.285156 C 46.382812 -37.601562 40.464844 -35.980469 33.308594 -35.980469 L 21.664062 -35.980469 L 21.664062 -56.5 Z M 33.308594 -56.5 "/></g></g></g><g fill="#ffffff" fill-opacity="1"><g transform="translate(743.997697, 308.451434)"><g><path d="M 68.046875 -18.226562 C 61.9375 -20.996094 61.746094 -21.378906 55.257812 -24.71875 C 51.820312 -18.226562 45.140625 -14.125 37.507812 -14.125 C 26.339844 -14.125 17.273438 -23.191406 17.273438 -34.355469 C 17.273438 -45.429688 26.339844 -54.589844 37.507812 -54.589844 C 44.855469 -54.589844 51.34375 -50.582031 54.683594 -44.761719 C 61.175781 -47.910156 61.652344 -48.195312 67.472656 -51.25 C 61.652344 -61.652344 50.582031 -68.90625 37.507812 -68.90625 C 18.417969 -68.90625 2.957031 -53.253906 2.957031 -34.355469 C 2.957031 -15.269531 18.417969 0.191406 37.507812 0.191406 C 50.964844 0.191406 62.226562 -7.253906 68.046875 -18.226562 Z M 68.046875 -18.226562 "/></g></g></g><g fill="#ffffff" fill-opacity="1"><g transform="translate(834.661953, 308.451434)"><g><path d="M 51.441406 -0.191406 L 66.136719 -0.191406 L 66.136719 -68.332031 L 51.441406 -68.332031 L 51.441406 -43.804688 L 19.851562 -43.804688 L 19.851562 -68.523438 L 5.25 -68.523438 L 5.25 -0.191406 L 19.851562 -0.191406 L 19.851562 -29.203125 L 51.441406 -29.203125 Z M 51.441406 -0.191406 "/></g></g></g></svg>