<svg xmlns="http://www.w3.org/2000/svg" xmlns:xlink="http://www.w3.org/1999/xlink" width="1366" zoomAndPan="magnify" viewBox="0 0 1024.5 576" height="768" preserveAspectRatio="xMidYMid meet" version="1.0"><defs><clipPath id="3f8c0ef0a3"><path d="M 281.710938 57.710938 L 741.988281 57.710938 L 741.988281 517.988281 L 281.710938 517.988281 Z M 281.710938 57.710938 " clip-rule="nonzero"/></clipPath></defs><g clip-path="url(#3f8c0ef0a3)"><path fill="#ffffff" d="M 492.535156 291.636719 L 560.164062 359.265625 C 570.179688 369.28125 570.179688 385.433594 560.164062 395.453125 C 550.226562 405.429688 533.996094 405.429688 524.019531 395.453125 L 441.871094 313.304688 C 427.929688 299.363281 427.929688 276.628906 441.871094 262.6875 L 524.019531 180.542969 C 533.996094 170.566406 550.226562 170.566406 560.164062 180.542969 C 570.179688 190.519531 570.179688 206.710938 560.164062 216.6875 L 492.535156 284.398438 C 490.53125 286.402344 490.53125 289.632812 492.535156 291.636719 Z M 511.996094 57.710938 C 384.832031 57.710938 281.710938 160.792969 281.710938 287.996094 C 281.710938 415.160156 384.832031 518.28125 511.996094 518.28125 C 639.199219 518.28125 742.28125 415.160156 742.28125 287.996094 C 742.28125 160.792969 639.199219 57.710938 511.996094 57.710938 " fill-opacity="1" fill-rule="nonzero"/></g></svg>