<svg xmlns="http://www.w3.org/2000/svg" xmlns:xlink="http://www.w3.org/1999/xlink" width="1366" zoomAndPan="magnify" viewBox="0 0 1024.5 576" height="768" preserveAspectRatio="xMidYMid meet" version="1.0"><defs><clipPath id="261580cab3"><path d="M 281.710938 57.710938 L 741.988281 57.710938 L 741.988281 517.988281 L 281.710938 517.988281 Z M 281.710938 57.710938 " clip-rule="nonzero"/></clipPath></defs><path fill="#ffffff" d="M 461.027344 237.027344 L 562.964844 237.027344 L 562.964844 338.964844 L 461.027344 338.964844 Z M 461.027344 237.027344 " fill-opacity="1" fill-rule="nonzero"/><g clip-path="url(#261580cab3)"><path fill="#ffffff" d="M 511.996094 57.710938 C 508.226562 57.710938 504.460938 57.804688 500.695312 57.988281 C 496.933594 58.175781 493.175781 58.453125 489.425781 58.820312 C 485.675781 59.191406 481.933594 59.652344 478.207031 60.203125 C 474.480469 60.757812 470.765625 61.402344 467.070312 62.136719 C 463.375 62.871094 459.699219 63.699219 456.042969 64.613281 C 452.386719 65.53125 448.753906 66.535156 445.148438 67.628906 C 441.542969 68.722656 437.964844 69.902344 434.417969 71.175781 C 430.867188 72.445312 427.351562 73.800781 423.871094 75.242188 C 420.390625 76.683594 416.945312 78.210938 413.539062 79.820312 C 410.128906 81.433594 406.765625 83.128906 403.441406 84.902344 C 400.117188 86.679688 396.839844 88.539062 393.605469 90.476562 C 390.375 92.414062 387.191406 94.429688 384.058594 96.523438 C 380.925781 98.617188 377.84375 100.785156 374.816406 103.03125 C 371.789062 105.277344 368.820312 107.59375 365.90625 109.984375 C 362.992188 112.375 360.140625 114.835938 357.347656 117.367188 C 354.554688 119.898438 351.824219 122.496094 349.160156 125.160156 C 346.496094 127.824219 343.898438 130.554688 341.367188 133.347656 C 338.835938 136.140625 336.375 138.992188 333.984375 141.90625 C 331.59375 144.820312 329.277344 147.789062 327.03125 150.816406 C 324.785156 153.84375 322.617188 156.925781 320.523438 160.058594 C 318.429688 163.191406 316.414062 166.375 314.476562 169.605469 C 312.539062 172.839844 310.679688 176.117188 308.902344 179.441406 C 307.128906 182.765625 305.433594 186.128906 303.820312 189.539062 C 302.210938 192.945312 300.683594 196.390625 299.242188 199.871094 C 297.800781 203.351562 296.445312 206.867188 295.175781 210.417969 C 293.90625 213.964844 292.722656 217.542969 291.628906 221.148438 C 290.535156 224.753906 289.53125 228.386719 288.613281 232.042969 C 287.699219 235.699219 286.871094 239.375 286.136719 243.070312 C 285.402344 246.765625 284.757812 250.480469 284.203125 254.207031 C 283.652344 257.933594 283.191406 261.675781 282.820312 265.425781 C 282.453125 269.175781 282.175781 272.933594 281.988281 276.695312 C 281.804688 280.460938 281.710938 284.226562 281.710938 287.996094 C 281.710938 291.765625 281.804688 295.53125 281.988281 299.296875 C 282.175781 303.058594 282.453125 306.816406 282.820312 310.566406 C 283.191406 314.320312 283.652344 318.058594 284.203125 321.785156 C 284.757812 325.515625 285.402344 329.226562 286.136719 332.921875 C 286.871094 336.617188 287.699219 340.296875 288.613281 343.949219 C 289.53125 347.605469 290.535156 351.238281 291.628906 354.84375 C 292.722656 358.449219 293.90625 362.027344 295.175781 365.578125 C 296.445312 369.125 297.800781 372.640625 299.242188 376.121094 C 300.683594 379.605469 302.210938 383.046875 303.820312 386.457031 C 305.433594 389.863281 307.128906 393.226562 308.902344 396.550781 C 310.679688 399.875 312.539062 403.152344 314.476562 406.386719 C 316.414062 409.617188 318.429688 412.800781 320.523438 415.933594 C 322.617188 419.070312 324.785156 422.148438 327.03125 425.175781 C 329.277344 428.203125 331.59375 431.171875 333.984375 434.085938 C 336.375 437 338.835938 439.851562 341.367188 442.644531 C 343.898438 445.4375 346.496094 448.167969 349.160156 450.832031 C 351.824219 453.496094 354.554688 456.09375 357.347656 458.625 C 360.140625 461.15625 362.992188 463.617188 365.90625 466.007812 C 368.820312 468.398438 371.789062 470.71875 374.816406 472.960938 C 377.84375 475.207031 380.925781 477.375 384.058594 479.46875 C 387.191406 481.5625 390.375 483.582031 393.605469 485.519531 C 396.839844 487.457031 400.117188 489.3125 403.441406 491.089844 C 406.765625 492.867188 410.128906 494.558594 413.539062 496.171875 C 416.945312 497.78125 420.390625 499.308594 423.871094 500.75 C 427.351562 502.195312 430.867188 503.550781 434.417969 504.820312 C 437.964844 506.089844 441.542969 507.269531 445.148438 508.363281 C 448.753906 509.457031 452.386719 510.464844 456.042969 511.378906 C 459.699219 512.296875 463.375 513.121094 467.070312 513.855469 C 470.765625 514.589844 474.480469 515.234375 478.207031 515.789062 C 481.933594 516.339844 485.675781 516.800781 489.425781 517.171875 C 493.175781 517.542969 496.933594 517.816406 500.695312 518.003906 C 504.460938 518.1875 508.226562 518.28125 511.996094 518.28125 C 515.765625 518.28125 519.53125 518.1875 523.296875 518.003906 C 527.058594 517.816406 530.816406 517.542969 534.570312 517.171875 C 538.320312 516.800781 542.058594 516.339844 545.785156 515.789062 C 549.515625 515.234375 553.226562 514.589844 556.921875 513.855469 C 560.617188 513.121094 564.296875 512.296875 567.949219 511.378906 C 571.605469 510.464844 575.238281 509.457031 578.84375 508.363281 C 582.449219 507.269531 586.027344 506.089844 589.578125 504.820312 C 593.125 503.550781 596.640625 502.195312 600.121094 500.75 C 603.605469 499.308594 607.046875 497.78125 610.457031 496.171875 C 613.863281 494.558594 617.226562 492.867188 620.550781 491.089844 C 623.875 489.3125 627.152344 487.457031 630.386719 485.519531 C 633.617188 483.582031 636.800781 481.5625 639.933594 479.46875 C 643.070312 477.375 646.148438 475.207031 649.175781 472.960938 C 652.203125 470.71875 655.175781 468.398438 658.085938 466.007812 C 661 463.617188 663.851562 461.15625 666.644531 458.625 C 669.4375 456.09375 672.167969 453.496094 674.832031 450.832031 C 677.496094 448.167969 680.09375 445.4375 682.625 442.644531 C 685.15625 439.851562 687.617188 437 690.007812 434.085938 C 692.398438 431.171875 694.71875 428.203125 696.960938 425.175781 C 699.207031 422.148438 701.375 419.070312 703.472656 415.933594 C 705.566406 412.800781 707.582031 409.617188 709.519531 406.386719 C 711.457031 403.152344 713.3125 399.875 715.089844 396.550781 C 716.867188 393.226562 718.558594 389.863281 720.171875 386.457031 C 721.78125 383.046875 723.308594 379.605469 724.75 376.121094 C 726.195312 372.640625 727.550781 369.125 728.820312 365.578125 C 730.089844 362.027344 731.269531 358.449219 732.363281 354.84375 C 733.457031 351.238281 734.464844 347.605469 735.378906 343.949219 C 736.296875 340.296875 737.121094 336.617188 737.855469 332.921875 C 738.589844 329.226562 739.234375 325.515625 739.789062 321.785156 C 740.339844 318.058594 740.800781 314.320312 741.171875 310.566406 C 741.542969 306.816406 741.816406 303.058594 742.003906 299.296875 C 742.1875 295.53125 742.28125 291.765625 742.28125 287.996094 C 742.277344 284.226562 742.183594 280.460938 742 276.699219 C 741.8125 272.933594 741.535156 269.175781 741.164062 265.425781 C 740.792969 261.675781 740.332031 257.9375 739.777344 254.210938 C 739.222656 250.484375 738.578125 246.773438 737.84375 243.074219 C 737.105469 239.378906 736.28125 235.703125 735.363281 232.050781 C 734.445312 228.394531 733.441406 224.765625 732.347656 221.15625 C 731.25 217.550781 730.070312 213.976562 728.796875 210.425781 C 727.527344 206.878906 726.171875 203.363281 724.730469 199.882812 C 723.285156 196.402344 721.757812 192.957031 720.148438 189.550781 C 718.535156 186.144531 716.839844 182.78125 715.0625 179.457031 C 713.289062 176.132812 711.429688 172.855469 709.492188 169.625 C 707.554688 166.394531 705.539062 163.210938 703.445312 160.078125 C 701.351562 156.945312 699.183594 153.863281 696.9375 150.835938 C 694.691406 147.8125 692.375 144.839844 689.984375 141.929688 C 687.59375 139.015625 685.132812 136.164062 682.601562 133.371094 C 680.070312 130.578125 677.472656 127.851562 674.808594 125.183594 C 672.144531 122.519531 669.414062 119.921875 666.621094 117.390625 C 663.832031 114.863281 660.976562 112.402344 658.066406 110.011719 C 655.152344 107.621094 652.183594 105.300781 649.15625 103.054688 C 646.128906 100.8125 643.050781 98.640625 639.914062 96.546875 C 636.78125 94.453125 633.601562 92.4375 630.367188 90.5 C 627.136719 88.5625 623.859375 86.707031 620.535156 84.929688 C 617.210938 83.152344 613.847656 81.457031 610.441406 79.847656 C 607.035156 78.234375 603.589844 76.707031 600.109375 75.265625 C 596.628906 73.820312 593.113281 72.464844 589.566406 71.195312 C 586.019531 69.925781 582.441406 68.742188 578.835938 67.648438 C 575.230469 66.550781 571.597656 65.546875 567.945312 64.628906 C 564.289062 63.714844 560.613281 62.886719 556.917969 62.152344 C 553.222656 61.414062 549.507812 60.769531 545.78125 60.214844 C 542.054688 59.660156 538.316406 59.199219 534.566406 58.828125 C 530.816406 58.457031 527.058594 58.179688 523.292969 57.992188 C 519.53125 57.808594 515.765625 57.714844 511.996094 57.710938 Z M 650.167969 368.597656 L 592.597656 368.597656 L 592.597656 426.167969 L 562.964844 426.167969 L 562.964844 368.597656 L 431.398438 368.597656 L 431.398438 237.027344 L 373.824219 237.027344 L 373.824219 207.398438 L 431.398438 207.398438 L 431.398438 149.824219 L 461.027344 149.824219 L 461.027344 207.398438 L 592.597656 207.398438 L 592.597656 338.964844 L 650.167969 338.964844 Z M 650.167969 368.597656 " fill-opacity="1" fill-rule="nonzero"/></g></svg>