<svg xmlns="http://www.w3.org/2000/svg" xmlns:xlink="http://www.w3.org/1999/xlink" width="1366" zoomAndPan="magnify" viewBox="0 0 1024.5 576" height="768" preserveAspectRatio="xMidYMid meet" version="1.0"><defs><clipPath id="1d19359027"><path d="M 284.785156 60.785156 L 739.0625 60.785156 L 739.0625 515.0625 L 284.785156 515.0625 Z M 284.785156 60.785156 " clip-rule="nonzero"/></clipPath></defs><g clip-path="url(#1d19359027)"><path fill="#ffffff" d="M 511.996094 60.785156 C 508.277344 60.785156 504.5625 60.878906 500.847656 61.058594 C 497.132812 61.242188 493.425781 61.515625 489.726562 61.878906 C 486.023438 62.246094 482.335938 62.699219 478.65625 63.246094 C 474.980469 63.789062 471.316406 64.425781 467.667969 65.152344 C 464.023438 65.878906 460.394531 66.691406 456.789062 67.59375 C 453.179688 68.5 449.597656 69.488281 446.039062 70.570312 C 442.480469 71.648438 438.953125 72.816406 435.449219 74.066406 C 431.949219 75.320312 428.480469 76.65625 425.046875 78.082031 C 421.609375 79.503906 418.210938 81.011719 414.851562 82.601562 C 411.488281 84.191406 408.167969 85.863281 404.890625 87.613281 C 401.609375 89.367188 398.375 91.199219 395.1875 93.109375 C 391.996094 95.023438 388.855469 97.011719 385.765625 99.078125 C 382.671875 101.144531 379.632812 103.285156 376.648438 105.5 C 373.660156 107.714844 370.730469 110 367.855469 112.359375 C 364.980469 114.71875 362.167969 117.148438 359.410156 119.644531 C 356.65625 122.140625 353.964844 124.703125 351.335938 127.335938 C 348.703125 129.964844 346.140625 132.65625 343.644531 135.410156 C 341.148438 138.164062 338.71875 140.980469 336.359375 143.855469 C 334 146.730469 331.714844 149.660156 329.5 152.648438 C 327.285156 155.632812 325.144531 158.671875 323.078125 161.765625 C 321.011719 164.855469 319.023438 167.996094 317.113281 171.1875 C 315.199219 174.375 313.367188 177.609375 311.613281 180.890625 C 309.863281 184.167969 308.191406 187.488281 306.601562 190.851562 C 305.011719 194.210938 303.503906 197.609375 302.082031 201.046875 C 300.660156 204.480469 299.320312 207.949219 298.066406 211.449219 C 296.816406 214.953125 295.648438 218.480469 294.570312 222.039062 C 293.488281 225.597656 292.5 229.179688 291.59375 232.789062 C 290.691406 236.394531 289.878906 240.023438 289.152344 243.667969 C 288.425781 247.316406 287.789062 250.980469 287.246094 254.65625 C 286.699219 258.335938 286.246094 262.023438 285.878906 265.726562 C 285.515625 269.425781 285.242188 273.132812 285.058594 276.847656 C 284.878906 280.5625 284.785156 284.277344 284.785156 287.996094 C 284.785156 291.714844 284.878906 295.429688 285.058594 299.144531 C 285.242188 302.859375 285.515625 306.566406 285.878906 310.265625 C 286.246094 313.964844 286.699219 317.65625 287.246094 321.332031 C 287.789062 325.011719 288.425781 328.675781 289.152344 332.320312 C 289.878906 335.96875 290.691406 339.59375 291.59375 343.203125 C 292.5 346.808594 293.488281 350.390625 294.570312 353.949219 C 295.648438 357.507812 296.816406 361.039062 298.066406 364.539062 C 299.320312 368.039062 300.660156 371.507812 302.082031 374.945312 C 303.503906 378.378906 305.011719 381.777344 306.601562 385.140625 C 308.191406 388.5 309.863281 391.820312 311.613281 395.101562 C 313.367188 398.378906 315.199219 401.613281 317.113281 404.804688 C 319.023438 407.992188 321.011719 411.132812 323.078125 414.226562 C 325.144531 417.316406 327.285156 420.355469 329.5 423.34375 C 331.714844 426.332031 334 429.261719 336.359375 432.136719 C 338.71875 435.011719 341.148438 437.824219 343.644531 440.578125 C 346.140625 443.335938 348.703125 446.027344 351.335938 448.65625 C 353.964844 451.285156 356.65625 453.847656 359.410156 456.347656 C 362.167969 458.84375 364.980469 461.273438 367.855469 463.628906 C 370.730469 465.988281 373.660156 468.277344 376.648438 470.492188 C 379.632812 472.707031 382.671875 474.847656 385.765625 476.914062 C 388.855469 478.980469 391.996094 480.96875 395.1875 482.878906 C 398.375 484.789062 401.609375 486.625 404.890625 488.375 C 408.167969 490.128906 411.488281 491.800781 414.851562 493.390625 C 418.210938 494.980469 421.609375 496.488281 425.046875 497.910156 C 428.480469 499.332031 431.949219 500.671875 435.449219 501.921875 C 438.953125 503.175781 442.480469 504.339844 446.039062 505.421875 C 449.597656 506.5 453.179688 507.492188 456.789062 508.394531 C 460.394531 509.300781 464.023438 510.113281 467.667969 510.839844 C 471.316406 511.5625 474.980469 512.199219 478.65625 512.746094 C 482.335938 513.292969 486.023438 513.746094 489.726562 514.109375 C 493.425781 514.476562 497.132812 514.75 500.847656 514.929688 C 504.5625 515.113281 508.277344 515.203125 511.996094 515.203125 C 515.714844 515.203125 519.429688 515.113281 523.144531 514.929688 C 526.859375 514.75 530.566406 514.476562 534.265625 514.109375 C 537.964844 513.746094 541.65625 513.292969 545.332031 512.746094 C 549.011719 512.199219 552.675781 511.5625 556.320312 510.839844 C 559.96875 510.113281 563.597656 509.300781 567.203125 508.394531 C 570.808594 507.492188 574.390625 506.5 577.949219 505.421875 C 581.507812 504.339844 585.039062 503.175781 588.539062 501.921875 C 592.039062 500.671875 595.507812 499.332031 598.945312 497.910156 C 602.378906 496.488281 605.777344 494.980469 609.140625 493.390625 C 612.5 491.800781 615.820312 490.128906 619.101562 488.375 C 622.378906 486.625 625.613281 484.789062 628.804688 482.878906 C 631.992188 480.96875 635.132812 478.980469 638.226562 476.914062 C 641.316406 474.847656 644.355469 472.707031 647.34375 470.492188 C 650.332031 468.277344 653.261719 465.988281 656.136719 463.628906 C 659.011719 461.273438 661.824219 458.84375 664.578125 456.347656 C 667.335938 453.847656 670.027344 451.285156 672.65625 448.65625 C 675.285156 446.027344 677.847656 443.335938 680.347656 440.578125 C 682.84375 437.824219 685.273438 435.011719 687.628906 432.136719 C 689.988281 429.261719 692.277344 426.332031 694.492188 423.34375 C 696.707031 420.355469 698.847656 417.316406 700.914062 414.226562 C 702.980469 411.132812 704.96875 407.992188 706.878906 404.804688 C 708.792969 401.613281 710.625 398.378906 712.375 395.101562 C 714.128906 391.820312 715.800781 388.5 717.390625 385.140625 C 718.980469 381.777344 720.488281 378.378906 721.910156 374.945312 C 723.332031 371.507812 724.671875 368.039062 725.921875 364.539062 C 727.175781 361.039062 728.34375 357.507812 729.421875 353.949219 C 730.5 350.390625 731.492188 346.808594 732.394531 343.203125 C 733.300781 339.59375 734.113281 335.96875 734.839844 332.320312 C 735.5625 328.675781 736.199219 325.011719 736.746094 321.332031 C 737.292969 317.65625 737.746094 313.964844 738.109375 310.265625 C 738.476562 306.566406 738.75 302.859375 738.929688 299.144531 C 739.113281 295.429688 739.203125 291.714844 739.203125 287.996094 C 739.203125 284.277344 739.113281 280.5625 738.929688 276.847656 C 738.75 273.132812 738.476562 269.425781 738.109375 265.726562 C 737.746094 262.023438 737.292969 258.335938 736.746094 254.65625 C 736.199219 250.980469 735.566406 247.316406 734.839844 243.667969 C 734.113281 240.023438 733.300781 236.394531 732.394531 232.789062 C 731.492188 229.179688 730.5 225.597656 729.421875 222.039062 C 728.34375 218.480469 727.175781 214.953125 725.921875 211.449219 C 724.671875 207.949219 723.332031 204.480469 721.910156 201.046875 C 720.488281 197.609375 718.980469 194.210938 717.390625 190.851562 C 715.800781 187.488281 714.128906 184.167969 712.375 180.890625 C 710.625 177.609375 708.792969 174.375 706.878906 171.1875 C 704.96875 167.996094 702.980469 164.855469 700.914062 161.765625 C 698.847656 158.671875 696.707031 155.632812 694.492188 152.648438 C 692.277344 149.660156 689.988281 146.730469 687.628906 143.855469 C 685.273438 140.980469 682.84375 138.164062 680.347656 135.410156 C 677.847656 132.65625 675.285156 129.964844 672.65625 127.335938 C 670.027344 124.703125 667.335938 122.140625 664.578125 119.644531 C 661.824219 117.148438 659.011719 114.71875 656.136719 112.359375 C 653.261719 110 650.332031 107.714844 647.34375 105.5 C 644.355469 103.285156 641.316406 101.144531 638.226562 99.078125 C 635.132812 97.011719 631.992188 95.023438 628.804688 93.109375 C 625.613281 91.199219 622.378906 89.367188 619.101562 87.613281 C 615.820312 85.863281 612.5 84.191406 609.140625 82.601562 C 605.777344 81.011719 602.378906 79.503906 598.945312 78.082031 C 595.507812 76.65625 592.039062 75.320312 588.539062 74.066406 C 585.039062 72.816406 581.507812 71.648438 577.949219 70.570312 C 574.390625 69.488281 570.808594 68.5 567.203125 67.59375 C 563.597656 66.691406 559.96875 65.878906 556.320312 65.152344 C 552.675781 64.425781 549.011719 63.789062 545.332031 63.246094 C 541.65625 62.699219 537.964844 62.246094 534.265625 61.878906 C 530.566406 61.515625 526.859375 61.242188 523.144531 61.058594 C 519.429688 60.878906 515.714844 60.785156 511.996094 60.785156 Z M 640.414062 374.335938 L 381.394531 374.335938 C 380.875 374.335938 380.355469 374.308594 379.835938 374.257812 C 379.316406 374.207031 378.804688 374.132812 378.292969 374.027344 C 377.78125 373.925781 377.277344 373.800781 376.777344 373.648438 C 376.28125 373.5 375.789062 373.324219 375.308594 373.125 C 374.828125 372.925781 374.359375 372.703125 373.898438 372.457031 C 373.4375 372.210938 372.992188 371.945312 372.558594 371.65625 C 372.125 371.363281 371.707031 371.054688 371.304688 370.726562 C 370.902344 370.394531 370.515625 370.042969 370.148438 369.675781 C 369.78125 369.308594 369.429688 368.921875 369.101562 368.519531 C 368.769531 368.117188 368.460938 367.699219 368.171875 367.265625 C 367.882812 366.832031 367.613281 366.386719 367.367188 365.925781 C 367.125 365.46875 366.902344 364.996094 366.703125 364.515625 C 366.503906 364.035156 366.328125 363.546875 366.175781 363.046875 C 366.023438 362.546875 365.898438 362.042969 365.796875 361.53125 C 365.695312 361.023438 365.617188 360.507812 365.566406 359.988281 C 365.515625 359.472656 365.492188 358.949219 365.492188 358.429688 C 365.492188 357.910156 365.515625 357.390625 365.566406 356.871094 C 365.617188 356.351562 365.695312 355.839844 365.796875 355.328125 C 365.898438 354.816406 366.023438 354.3125 366.175781 353.8125 C 366.328125 353.316406 366.503906 352.824219 366.703125 352.34375 C 366.902344 351.863281 367.125 351.390625 367.367188 350.933594 C 367.613281 350.472656 367.882812 350.027344 368.171875 349.59375 C 368.460938 349.160156 368.769531 348.742188 369.101562 348.339844 C 369.429688 347.9375 369.78125 347.550781 370.148438 347.183594 C 370.515625 346.816406 370.902344 346.464844 371.304688 346.136719 C 371.707031 345.804688 372.125 345.496094 372.558594 345.207031 C 372.992188 344.917969 373.4375 344.648438 373.898438 344.402344 C 374.359375 344.15625 374.828125 343.9375 375.308594 343.734375 C 375.789062 343.535156 376.28125 343.363281 376.777344 343.210938 C 377.277344 343.058594 377.78125 342.933594 378.292969 342.832031 C 378.804688 342.730469 379.316406 342.652344 379.835938 342.601562 C 380.355469 342.550781 380.875 342.527344 381.394531 342.527344 L 640.414062 342.527344 C 640.933594 342.527344 641.453125 342.550781 641.972656 342.601562 C 642.492188 342.652344 643.007812 342.730469 643.515625 342.832031 C 644.027344 342.933594 644.53125 343.058594 645.03125 343.210938 C 645.53125 343.363281 646.019531 343.535156 646.5 343.734375 C 646.980469 343.9375 647.453125 344.15625 647.910156 344.402344 C 648.371094 344.648438 648.816406 344.917969 649.25 345.207031 C 649.683594 345.496094 650.101562 345.804688 650.503906 346.136719 C 650.90625 346.464844 651.292969 346.816406 651.660156 347.183594 C 652.027344 347.550781 652.378906 347.9375 652.707031 348.339844 C 653.039062 348.742188 653.347656 349.160156 653.636719 349.59375 C 653.929688 350.027344 654.195312 350.472656 654.441406 350.933594 C 654.6875 351.390625 654.910156 351.863281 655.109375 352.34375 C 655.308594 352.824219 655.484375 353.316406 655.632812 353.8125 C 655.785156 354.3125 655.910156 354.816406 656.011719 355.328125 C 656.113281 355.839844 656.191406 356.351562 656.242188 356.871094 C 656.292969 357.390625 656.320312 357.910156 656.320312 358.429688 C 656.320312 358.949219 656.292969 359.472656 656.242188 359.988281 C 656.191406 360.507812 656.113281 361.023438 656.011719 361.53125 C 655.910156 362.042969 655.785156 362.546875 655.632812 363.046875 C 655.484375 363.546875 655.308594 364.035156 655.109375 364.515625 C 654.910156 364.996094 654.6875 365.46875 654.441406 365.925781 C 654.195312 366.386719 653.929688 366.832031 653.636719 367.265625 C 653.347656 367.699219 653.039062 368.117188 652.707031 368.519531 C 652.378906 368.921875 652.027344 369.308594 651.660156 369.675781 C 651.292969 370.042969 650.90625 370.394531 650.503906 370.726562 C 650.101562 371.054688 649.683594 371.363281 649.25 371.65625 C 648.816406 371.945312 648.371094 372.210938 647.910156 372.457031 C 647.453125 372.703125 646.980469 372.925781 646.5 373.125 C 646.019531 373.324219 645.53125 373.5 645.03125 373.648438 C 644.53125 373.800781 644.027344 373.925781 643.515625 374.027344 C 643.007812 374.132812 642.492188 374.207031 641.972656 374.257812 C 641.453125 374.308594 640.933594 374.335938 640.414062 374.335938 Z M 640.414062 306.171875 L 381.394531 306.171875 C 380.875 306.171875 380.355469 306.148438 379.835938 306.09375 C 379.316406 306.042969 378.804688 305.96875 378.292969 305.867188 C 377.78125 305.765625 377.277344 305.636719 376.777344 305.488281 C 376.28125 305.335938 375.789062 305.160156 375.308594 304.960938 C 374.828125 304.761719 374.359375 304.539062 373.898438 304.292969 C 373.4375 304.046875 372.992188 303.78125 372.558594 303.492188 C 372.125 303.203125 371.707031 302.890625 371.304688 302.5625 C 370.902344 302.230469 370.515625 301.882812 370.148438 301.515625 C 369.78125 301.144531 369.429688 300.761719 369.101562 300.355469 C 368.769531 299.953125 368.460938 299.535156 368.171875 299.105469 C 367.882812 298.671875 367.613281 298.222656 367.367188 297.765625 C 367.125 297.304688 366.902344 296.835938 366.703125 296.355469 C 366.503906 295.871094 366.328125 295.382812 366.175781 294.882812 C 366.023438 294.386719 365.898438 293.882812 365.796875 293.371094 C 365.695312 292.859375 365.617188 292.34375 365.566406 291.828125 C 365.515625 291.308594 365.492188 290.789062 365.492188 290.265625 C 365.492188 289.746094 365.515625 289.226562 365.566406 288.707031 C 365.617188 288.191406 365.695312 287.675781 365.796875 287.164062 C 365.898438 286.652344 366.023438 286.148438 366.175781 285.652344 C 366.328125 285.152344 366.503906 284.664062 366.703125 284.179688 C 366.902344 283.699219 367.125 283.230469 367.367188 282.769531 C 367.613281 282.3125 367.882812 281.863281 368.171875 281.429688 C 368.460938 281 368.769531 280.582031 369.101562 280.175781 C 369.429688 279.773438 369.78125 279.390625 370.148438 279.019531 C 370.515625 278.652344 370.902344 278.304688 371.304688 277.972656 C 371.707031 277.640625 372.125 277.332031 372.558594 277.042969 C 372.992188 276.753906 373.4375 276.484375 373.898438 276.242188 C 374.359375 275.996094 374.828125 275.773438 375.308594 275.574219 C 375.789062 275.375 376.28125 275.199219 376.777344 275.046875 C 377.277344 274.894531 377.78125 274.769531 378.292969 274.667969 C 378.804688 274.566406 379.316406 274.492188 379.835938 274.4375 C 380.355469 274.386719 380.875 274.363281 381.394531 274.363281 L 640.414062 274.363281 C 640.933594 274.363281 641.453125 274.386719 641.972656 274.4375 C 642.492188 274.492188 643.007812 274.566406 643.515625 274.667969 C 644.027344 274.769531 644.53125 274.894531 645.03125 275.046875 C 645.53125 275.199219 646.019531 275.375 646.5 275.574219 C 646.980469 275.773438 647.453125 275.996094 647.910156 276.242188 C 648.371094 276.484375 648.816406 276.753906 649.25 277.042969 C 649.683594 277.332031 650.101562 277.640625 650.503906 277.972656 C 650.90625 278.304688 651.292969 278.652344 651.660156 279.019531 C 652.027344 279.390625 652.378906 279.773438 652.707031 280.175781 C 653.039062 280.582031 653.347656 281 653.636719 281.429688 C 653.929688 281.863281 654.195312 282.3125 654.441406 282.769531 C 654.6875 283.230469 654.910156 283.699219 655.109375 284.179688 C 655.308594 284.664062 655.484375 285.152344 655.632812 285.652344 C 655.785156 286.148438 655.910156 286.652344 656.011719 287.164062 C 656.113281 287.675781 656.191406 288.191406 656.242188 288.707031 C 656.292969 289.226562 656.320312 289.746094 656.320312 290.265625 C 656.320312 290.789062 656.292969 291.308594 656.242188 291.828125 C 656.191406 292.34375 656.113281 292.859375 656.011719 293.371094 C 655.910156 293.882812 655.785156 294.386719 655.632812 294.882812 C 655.484375 295.382812 655.308594 295.871094 655.109375 296.355469 C 654.910156 296.835938 654.6875 297.304688 654.441406 297.765625 C 654.195312 298.222656 653.929688 298.671875 653.636719 299.105469 C 653.347656 299.535156 653.039062 299.953125 652.707031 300.355469 C 652.378906 300.761719 652.027344 301.144531 651.660156 301.515625 C 651.292969 301.882812 650.90625 302.230469 650.503906 302.5625 C 650.101562 302.890625 649.683594 303.203125 649.25 303.492188 C 648.816406 303.78125 648.371094 304.046875 647.910156 304.292969 C 647.453125 304.539062 646.980469 304.761719 646.5 304.960938 C 646.019531 305.160156 645.53125 305.335938 645.03125 305.488281 C 644.53125 305.636719 644.027344 305.765625 643.515625 305.867188 C 643.007812 305.96875 642.492188 306.042969 641.972656 306.09375 C 641.453125 306.148438 640.933594 306.171875 640.414062 306.171875 Z M 640.414062 238.007812 L 381.394531 238.007812 C 380.875 238.007812 380.355469 237.984375 379.835938 237.933594 C 379.316406 237.882812 378.804688 237.804688 378.292969 237.703125 C 377.78125 237.601562 377.277344 237.476562 376.777344 237.324219 C 376.28125 237.171875 375.789062 236.996094 375.308594 236.796875 C 374.828125 236.597656 374.359375 236.375 373.898438 236.132812 C 373.4375 235.886719 372.992188 235.617188 372.558594 235.328125 C 372.125 235.039062 371.707031 234.730469 371.304688 234.398438 C 370.902344 234.070312 370.515625 233.71875 370.148438 233.351562 C 369.78125 232.984375 369.429688 232.597656 369.101562 232.195312 C 368.769531 231.792969 368.460938 231.375 368.171875 230.941406 C 367.882812 230.507812 367.613281 230.0625 367.367188 229.601562 C 367.125 229.144531 366.902344 228.671875 366.703125 228.191406 C 366.503906 227.710938 366.328125 227.21875 366.175781 226.722656 C 366.023438 226.222656 365.898438 225.71875 365.796875 225.207031 C 365.695312 224.695312 365.617188 224.183594 365.566406 223.664062 C 365.515625 223.144531 365.492188 222.625 365.492188 222.105469 C 365.492188 221.582031 365.515625 221.0625 365.566406 220.546875 C 365.617188 220.027344 365.695312 219.511719 365.796875 219 C 365.898438 218.492188 366.023438 217.984375 366.175781 217.488281 C 366.328125 216.988281 366.503906 216.5 366.703125 216.019531 C 366.902344 215.535156 367.125 215.066406 367.367188 214.605469 C 367.613281 214.148438 367.882812 213.703125 368.171875 213.269531 C 368.460938 212.835938 368.769531 212.417969 369.101562 212.015625 C 369.429688 211.613281 369.78125 211.226562 370.148438 210.859375 C 370.515625 210.488281 370.902344 210.140625 371.304688 209.808594 C 371.707031 209.480469 372.125 209.167969 372.558594 208.878906 C 372.992188 208.589844 373.4375 208.324219 373.898438 208.078125 C 374.359375 207.832031 374.828125 207.609375 375.308594 207.410156 C 375.789062 207.210938 376.28125 207.035156 376.777344 206.886719 C 377.277344 206.734375 377.78125 206.605469 378.292969 206.503906 C 378.804688 206.402344 379.316406 206.328125 379.835938 206.277344 C 380.355469 206.226562 380.875 206.199219 381.394531 206.199219 L 640.414062 206.199219 C 640.933594 206.199219 641.453125 206.226562 641.972656 206.277344 C 642.492188 206.328125 643.007812 206.402344 643.515625 206.503906 C 644.027344 206.605469 644.53125 206.734375 645.03125 206.886719 C 645.53125 207.035156 646.019531 207.210938 646.5 207.410156 C 646.980469 207.609375 647.453125 207.832031 647.910156 208.078125 C 648.371094 208.324219 648.816406 208.589844 649.25 208.878906 C 649.683594 209.167969 650.101562 209.480469 650.503906 209.808594 C 650.90625 210.140625 651.292969 210.488281 651.660156 210.859375 C 652.027344 211.226562 652.378906 211.613281 652.707031 212.015625 C 653.039062 212.417969 653.347656 212.835938 653.636719 213.269531 C 653.929688 213.703125 654.195312 214.148438 654.441406 214.605469 C 654.6875 215.066406 654.910156 215.535156 655.109375 216.019531 C 655.308594 216.5 655.484375 216.988281 655.632812 217.488281 C 655.785156 217.984375 655.910156 218.492188 656.011719 219 C 656.113281 219.511719 656.191406 220.027344 656.242188 220.546875 C 656.292969 221.0625 656.320312 221.582031 656.320312 222.105469 C 656.320312 222.625 656.292969 223.144531 656.242188 223.664062 C 656.191406 224.183594 656.113281 224.695312 656.011719 225.207031 C 655.910156 225.71875 655.785156 226.222656 655.632812 226.722656 C 655.484375 227.21875 655.308594 227.710938 655.109375 228.191406 C 654.910156 228.671875 654.6875 229.144531 654.441406 229.601562 C 654.195312 230.0625 653.929688 230.507812 653.636719 230.941406 C 653.347656 231.375 653.039062 231.792969 652.707031 232.195312 C 652.378906 232.597656 652.027344 232.984375 651.660156 233.351562 C 651.292969 233.71875 650.90625 234.070312 650.503906 234.398438 C 650.101562 234.730469 649.683594 235.039062 649.25 235.328125 C 648.816406 235.617188 648.371094 235.886719 647.910156 236.132812 C 647.453125 236.375 646.980469 236.597656 646.5 236.796875 C 646.019531 236.996094 645.53125 237.171875 645.03125 237.324219 C 644.53125 237.476562 644.027344 237.601562 643.515625 237.703125 C 643.007812 237.804688 642.492188 237.882812 641.972656 237.933594 C 641.453125 237.984375 640.933594 238.007812 640.414062 238.007812 Z M 640.414062 238.007812 " fill-opacity="1" fill-rule="nonzero"/></g></svg>