<svg xmlns="http://www.w3.org/2000/svg" xmlns:xlink="http://www.w3.org/1999/xlink" width="1366" zoomAndPan="magnify" viewBox="0 0 1024.5 576" height="768" preserveAspectRatio="xMidYMid meet" version="1.0"><defs><clipPath id="8ebdbe396e"><path d="M 281.710938 57.710938 L 740 57.710938 L 740 516 L 281.710938 516 Z M 281.710938 57.710938 " clip-rule="nonzero"/></clipPath></defs><g clip-path="url(#8ebdbe396e)"><path fill="#ffffff" d="M 577.742188 394.5 L 690.550781 507.269531 C 701.71875 518.433594 719.855469 518.433594 731.027344 507.261719 C 742.191406 496.089844 742.1875 477.953125 731.019531 466.785156 L 618.289062 354.09375 C 640.964844 323.25 654.371094 285.15625 654.371094 243.957031 C 654.371094 141.164062 570.917969 57.710938 468.128906 57.710938 C 365.335938 57.710938 281.882812 141.164062 281.882812 243.957031 C 281.882812 346.746094 365.335938 430.199219 468.128906 430.199219 C 509.089844 430.199219 546.980469 416.949219 577.742188 394.5 Z M 468.128906 114.957031 C 539.324219 114.957031 597.132812 172.757812 597.132812 243.957031 C 597.132812 315.152344 539.324219 372.960938 468.128906 372.960938 C 396.929688 372.960938 339.128906 315.152344 339.128906 243.957031 C 339.128906 172.757812 396.929688 114.957031 468.128906 114.957031 Z M 468.128906 114.957031 " fill-opacity="1" fill-rule="evenodd"/></g></svg>