<svg xmlns="http://www.w3.org/2000/svg" xmlns:xlink="http://www.w3.org/1999/xlink" width="1366" zoomAndPan="magnify" viewBox="0 0 1024.5 576" height="768" preserveAspectRatio="xMidYMid meet" version="1.0"><defs><clipPath id="fe9e64e4cf"><path d="M 281.710938 57.710938 L 741.988281 57.710938 L 741.988281 517.988281 L 281.710938 517.988281 Z M 281.710938 57.710938 " clip-rule="nonzero"/></clipPath></defs><path fill="#ffffff" d="M 440.5 410.0625 C 440.5 410.707031 440.4375 411.347656 440.308594 411.980469 C 440.183594 412.613281 439.996094 413.226562 439.75 413.824219 C 439.503906 414.421875 439.199219 414.988281 438.84375 415.523438 C 438.484375 416.058594 438.074219 416.558594 437.621094 417.011719 C 437.164062 417.46875 436.667969 417.878906 436.128906 418.234375 C 435.59375 418.59375 435.027344 418.898438 434.429688 419.144531 C 433.832031 419.390625 433.21875 419.578125 432.585938 419.703125 C 431.953125 419.832031 431.3125 419.894531 430.667969 419.894531 C 430.019531 419.894531 429.382812 419.832031 428.75 419.703125 C 428.117188 419.578125 427.5 419.390625 426.902344 419.144531 C 426.308594 418.898438 425.742188 418.59375 425.203125 418.234375 C 424.667969 417.878906 424.171875 417.46875 423.714844 417.011719 C 423.257812 416.558594 422.851562 416.058594 422.492188 415.523438 C 422.132812 414.988281 421.828125 414.421875 421.582031 413.824219 C 421.335938 413.226562 421.148438 412.613281 421.023438 411.980469 C 420.898438 411.347656 420.835938 410.707031 420.835938 410.0625 C 420.835938 409.414062 420.898438 408.777344 421.023438 408.144531 C 421.148438 407.507812 421.335938 406.894531 421.582031 406.296875 C 421.828125 405.703125 422.132812 405.136719 422.492188 404.597656 C 422.851562 404.0625 423.257812 403.566406 423.714844 403.109375 C 424.171875 402.652344 424.667969 402.246094 425.203125 401.886719 C 425.742188 401.527344 426.308594 401.222656 426.902344 400.976562 C 427.5 400.730469 428.117188 400.542969 428.75 400.417969 C 429.382812 400.292969 430.019531 400.230469 430.667969 400.230469 C 431.3125 400.230469 431.953125 400.292969 432.585938 400.417969 C 433.21875 400.542969 433.832031 400.730469 434.429688 400.976562 C 435.027344 401.222656 435.59375 401.527344 436.128906 401.886719 C 436.667969 402.246094 437.164062 402.652344 437.621094 403.109375 C 438.074219 403.566406 438.484375 404.0625 438.84375 404.597656 C 439.199219 405.136719 439.503906 405.703125 439.75 406.296875 C 439.996094 406.894531 440.183594 407.507812 440.308594 408.144531 C 440.4375 408.777344 440.5 409.414062 440.5 410.0625 Z M 440.5 410.0625 " fill-opacity="1" fill-rule="nonzero"/><path fill="#ffffff" d="M 601.878906 410.0625 C 601.878906 410.707031 601.8125 411.347656 601.6875 411.980469 C 601.5625 412.613281 601.375 413.226562 601.128906 413.824219 C 600.882812 414.421875 600.578125 414.988281 600.21875 415.523438 C 599.859375 416.058594 599.453125 416.558594 598.996094 417.011719 C 598.539062 417.46875 598.042969 417.878906 597.507812 418.234375 C 596.96875 418.59375 596.402344 418.898438 595.808594 419.144531 C 595.210938 419.390625 594.597656 419.578125 593.960938 419.703125 C 593.328125 419.832031 592.691406 419.894531 592.042969 419.894531 C 591.398438 419.894531 590.757812 419.832031 590.125 419.703125 C 589.492188 419.578125 588.878906 419.390625 588.28125 419.144531 C 587.683594 418.898438 587.117188 418.59375 586.582031 418.234375 C 586.046875 417.878906 585.546875 417.46875 585.09375 417.011719 C 584.636719 416.558594 584.226562 416.058594 583.871094 415.523438 C 583.511719 414.988281 583.207031 414.421875 582.960938 413.824219 C 582.714844 413.226562 582.527344 412.613281 582.402344 411.980469 C 582.273438 411.347656 582.210938 410.707031 582.210938 410.0625 C 582.210938 409.414062 582.273438 408.777344 582.402344 408.144531 C 582.527344 407.507812 582.714844 406.894531 582.960938 406.296875 C 583.207031 405.703125 583.511719 405.136719 583.871094 404.597656 C 584.226562 404.0625 584.636719 403.566406 585.09375 403.109375 C 585.546875 402.652344 586.046875 402.246094 586.582031 401.886719 C 587.117188 401.527344 587.683594 401.222656 588.28125 400.976562 C 588.878906 400.730469 589.492188 400.542969 590.125 400.417969 C 590.757812 400.292969 591.398438 400.230469 592.042969 400.230469 C 592.691406 400.230469 593.328125 400.292969 593.960938 400.417969 C 594.597656 400.542969 595.210938 400.730469 595.808594 400.976562 C 596.402344 401.222656 596.96875 401.527344 597.507812 401.886719 C 598.042969 402.246094 598.539062 402.652344 598.996094 403.109375 C 599.453125 403.566406 599.859375 404.0625 600.21875 404.597656 C 600.578125 405.136719 600.882812 405.703125 601.128906 406.296875 C 601.375 406.894531 601.5625 407.507812 601.6875 408.144531 C 601.8125 408.777344 601.878906 409.414062 601.878906 410.0625 Z M 601.878906 410.0625 " fill-opacity="1" fill-rule="nonzero"/><g clip-path="url(#fe9e64e4cf)"><path fill="#ffffff" d="M 511.957031 57.574219 C 384.8125 57.574219 281.742188 160.652344 281.742188 287.792969 C 281.742188 414.933594 384.8125 518.023438 511.957031 518.023438 C 639.105469 518.023438 742.179688 414.9375 742.179688 287.792969 C 742.179688 160.648438 639.105469 57.574219 511.957031 57.574219 Z M 449.042969 376.34375 L 592.042969 376.34375 C 610.632812 376.34375 625.757812 391.472656 625.757812 410.0625 C 625.757812 428.652344 610.632812 443.777344 592.042969 443.777344 C 573.449219 443.777344 558.324219 428.652344 558.324219 410.0625 C 558.324219 406.640625 558.84375 403.339844 559.792969 400.230469 L 462.910156 400.230469 C 463.863281 403.339844 464.382812 406.636719 464.382812 410.0625 C 464.382812 428.652344 449.261719 443.777344 430.667969 443.777344 C 412.074219 443.777344 396.949219 428.652344 396.949219 410.0625 C 396.949219 393.453125 409.03125 379.644531 424.863281 376.882812 L 418.9375 344.234375 L 418.871094 343.925781 L 387.433594 188.34375 L 358.546875 188.535156 L 358.390625 164.648438 L 406.949219 164.328125 L 418.699219 222.46875 L 636.398438 248.570312 L 608.742188 353.949219 L 444.972656 353.949219 Z M 449.042969 376.34375 " fill-opacity="1" fill-rule="nonzero"/></g></svg>