<svg xmlns="http://www.w3.org/2000/svg" xmlns:xlink="http://www.w3.org/1999/xlink" width="1366" zoomAndPan="magnify" viewBox="0 0 1024.5 576" height="768" preserveAspectRatio="xMidYMid meet" version="1.0"><defs><clipPath id="104dd5ba6a"><path d="M 281.710938 57.710938 L 741.988281 57.710938 L 741.988281 517.988281 L 281.710938 517.988281 Z M 281.710938 57.710938 " clip-rule="nonzero"/></clipPath></defs><g clip-path="url(#104dd5ba6a)"><path fill="#ffffff" d="M 627.269531 272.757812 C 624.3125 310.671875 595.683594 357.4375 512.035156 416.109375 C 428.382812 357.4375 399.765625 310.671875 396.804688 272.757812 L 396.804688 259.574219 C 399.984375 219.964844 426.09375 199.292969 448.667969 197.085938 C 452.378906 196.726562 455.851562 196.550781 459.105469 196.550781 C 485.195312 196.550781 497.707031 207.824219 512.035156 224.898438 C 526.359375 207.824219 538.875 196.550781 564.960938 196.550781 C 568.21875 196.550781 571.6875 196.726562 575.398438 197.085938 C 597.976562 199.292969 624.085938 219.964844 627.269531 259.574219 Z M 512.039062 57.726562 C 384.84375 57.726562 281.726562 160.84375 281.726562 288.039062 C 281.726562 415.234375 384.84375 518.34375 512.039062 518.34375 C 639.234375 518.34375 742.34375 415.234375 742.34375 288.039062 C 742.34375 160.84375 639.234375 57.726562 512.039062 57.726562 " fill-opacity="1" fill-rule="nonzero"/></g></svg>