<svg xmlns="http://www.w3.org/2000/svg" xmlns:xlink="http://www.w3.org/1999/xlink" width="1366" zoomAndPan="magnify" viewBox="0 0 1024.5 576" height="768" preserveAspectRatio="xMidYMid meet" version="1.0"><defs><clipPath id="99b0cdb29c"><path d="M 281.710938 57.710938 L 741.988281 57.710938 L 741.988281 517.988281 L 281.710938 517.988281 Z M 281.710938 57.710938 " clip-rule="nonzero"/></clipPath></defs><g clip-path="url(#99b0cdb29c)"><path fill="#ffffff" d="M 511.996094 518.28125 C 639.179688 518.28125 742.28125 415.179688 742.28125 287.996094 C 742.28125 160.8125 639.179688 57.710938 511.996094 57.710938 C 384.8125 57.710938 281.710938 160.8125 281.710938 287.996094 C 281.710938 415.179688 384.8125 518.28125 511.996094 518.28125 Z M 486.363281 178.269531 C 489.425781 180.347656 491.261719 183.808594 491.261719 187.507812 C 491.261719 198.8125 500.488281 208.074219 511.996094 208.074219 C 523.503906 208.074219 532.734375 198.8125 532.734375 187.507812 C 532.734375 183.808594 534.566406 180.347656 537.628906 178.269531 C 540.691406 176.191406 544.585938 175.765625 548.023438 177.132812 L 601.191406 198.289062 C 603.980469 199.398438 606.203125 201.582031 607.363281 204.351562 L 633.949219 267.816406 C 635.226562 270.867188 635.085938 274.328125 633.5625 277.269531 C 632.039062 280.207031 629.289062 282.316406 626.058594 283.03125 L 586.964844 291.671875 L 586.964844 388.484375 C 586.964844 394.648438 581.964844 399.648438 575.796875 399.648438 L 448.195312 399.648438 C 442.027344 399.648438 437.03125 394.648438 437.03125 388.484375 L 437.03125 291.671875 L 397.933594 283.03125 C 394.703125 282.316406 391.953125 280.207031 390.429688 277.269531 C 388.90625 274.328125 388.765625 270.867188 390.046875 267.816406 L 416.628906 204.351562 C 417.789062 201.582031 420.011719 199.398438 422.800781 198.289062 L 475.96875 177.132812 C 479.40625 175.765625 483.300781 176.191406 486.363281 178.269531 Z M 486.363281 178.269531 " fill-opacity="1" fill-rule="evenodd"/></g></svg>