<svg xmlns="http://www.w3.org/2000/svg" xmlns:xlink="http://www.w3.org/1999/xlink" width="1366" zoomAndPan="magnify" viewBox="0 0 1024.5 576" height="768" preserveAspectRatio="xMidYMid meet" version="1.0"><defs><clipPath id="7014a0723f"><path d="M 281.710938 57.710938 L 741.988281 57.710938 L 741.988281 517.988281 L 281.710938 517.988281 Z M 281.710938 57.710938 " clip-rule="nonzero"/></clipPath></defs><g clip-path="url(#7014a0723f)"><path fill="#ffffff" d="M 410.183594 257.289062 L 609.925781 257.289062 C 627.832031 257.332031 642.265625 271.886719 642.1875 289.753906 C 642.105469 307.542969 627.710938 321.933594 609.925781 322.015625 L 410.183594 322.015625 C 392.316406 321.933594 377.882812 307.417969 377.964844 289.507812 C 378.003906 271.722656 392.398438 257.332031 410.183594 257.289062 Z M 505.25 57.792969 C 380.664062 61.230469 281.507812 163.328125 281.710938 287.957031 C 281.46875 414.914062 384.179688 518.035156 511.136719 518.28125 C 638.097656 518.527344 741.21875 415.8125 741.464844 288.855469 C 741.464844 288.570312 741.464844 288.28125 741.464844 287.957031 C 741.667969 161.039062 638.914062 57.917969 511.957031 57.710938 C 509.707031 57.710938 507.5 57.753906 505.25 57.792969 " fill-opacity="1" fill-rule="nonzero"/></g></svg>