<svg xmlns="http://www.w3.org/2000/svg" xmlns:xlink="http://www.w3.org/1999/xlink" width="1366" zoomAndPan="magnify" viewBox="0 0 1024.5 576" height="768" preserveAspectRatio="xMidYMid meet" version="1.0"><defs><clipPath id="fe37a8bb0a"><path d="M 282 59 L 741.988281 59 L 741.988281 517 L 282 517 Z M 282 59 " clip-rule="nonzero"/></clipPath></defs><g clip-path="url(#fe37a8bb0a)"><path fill="#ffffff" d="M 528.277344 288.382812 L 737.628906 79.808594 C 742.28125 75.15625 742.28125 68.179688 737.628906 63.527344 C 732.976562 58.875 725.996094 58.875 721.347656 63.527344 L 511.996094 272.101562 L 303.421875 62.753906 C 298.769531 58.101562 291.792969 58.101562 287.140625 62.753906 C 282.488281 67.40625 282.488281 74.382812 287.140625 79.035156 L 495.714844 288.382812 L 286.363281 496.957031 C 281.710938 501.609375 281.710938 508.589844 286.363281 513.242188 C 291.015625 517.894531 298.769531 517.894531 302.648438 513.242188 L 511.996094 304.667969 L 720.570312 513.242188 C 722.898438 515.566406 725.996094 516.34375 729.097656 516.34375 C 732.199219 516.34375 735.300781 514.792969 737.628906 513.242188 C 742.28125 508.589844 742.28125 501.609375 737.628906 496.957031 Z M 528.277344 288.382812 " fill-opacity="1" fill-rule="nonzero"/></g></svg>