<svg xmlns="http://www.w3.org/2000/svg" xmlns:xlink="http://www.w3.org/1999/xlink" width="1366" zoomAndPan="magnify" viewBox="0 0 1024.5 576" height="768" preserveAspectRatio="xMidYMid meet" version="1.0"><defs><clipPath id="f230b6f917"><path d="M 281.710938 57.710938 L 741.988281 57.710938 L 741.988281 517.988281 L 281.710938 517.988281 Z M 281.710938 57.710938 " clip-rule="nonzero"/></clipPath></defs><g clip-path="url(#f230b6f917)"><path fill="#ffffff" d="M 511.996094 57.710938 C 385.019531 57.710938 281.710938 161.019531 281.710938 287.996094 C 281.710938 414.976562 385.019531 518.28125 511.996094 518.28125 C 638.976562 518.28125 742.28125 414.976562 742.28125 287.996094 C 742.28125 161.019531 638.976562 57.710938 511.996094 57.710938 Z M 511.996094 426.167969 C 445.96875 426.167969 392.25 372.445312 392.25 306.417969 C 392.25 301.324219 396.375 297.207031 401.460938 297.207031 C 406.542969 297.207031 410.671875 301.324219 410.671875 306.417969 C 410.671875 362.285156 456.128906 407.746094 511.996094 407.746094 C 567.863281 407.746094 613.320312 362.285156 613.320312 306.417969 C 613.320312 250.550781 567.863281 205.09375 511.996094 205.09375 L 497.386719 205.09375 L 518.507812 226.214844 C 522.109375 229.816406 522.109375 235.640625 518.507812 239.242188 C 516.710938 241.035156 514.355469 241.941406 511.996094 241.941406 C 509.636719 241.941406 507.28125 241.035156 505.484375 239.242188 L 468.640625 202.394531 C 465.035156 198.792969 465.035156 192.972656 468.640625 189.371094 L 505.484375 152.523438 C 509.085938 148.921875 514.90625 148.921875 518.507812 152.523438 C 522.109375 156.125 522.109375 161.949219 518.507812 165.550781 L 497.386719 186.671875 L 511.996094 186.671875 C 578.023438 186.671875 631.746094 240.390625 631.746094 306.417969 C 631.746094 372.445312 578.023438 426.167969 511.996094 426.167969 Z M 511.996094 426.167969 " fill-opacity="1" fill-rule="nonzero"/></g></svg>