<svg xmlns="http://www.w3.org/2000/svg" xmlns:xlink="http://www.w3.org/1999/xlink" width="1366" zoomAndPan="magnify" viewBox="0 0 1024.5 576" height="768" preserveAspectRatio="xMidYMid meet" version="1.0"><defs><clipPath id="05d821bcb7"><path d="M 281.710938 57.710938 L 741.988281 57.710938 L 741.988281 517.988281 L 281.710938 517.988281 Z M 281.710938 57.710938 " clip-rule="nonzero"/></clipPath></defs><g clip-path="url(#05d821bcb7)"><path fill="#ffffff" d="M 297.066406 303.347656 L 496.644531 303.347656 L 496.644531 502.929688 C 496.644531 511.40625 503.511719 518.28125 511.996094 518.28125 C 520.480469 518.28125 527.347656 511.40625 527.347656 502.929688 L 527.347656 303.347656 L 726.929688 303.347656 C 735.414062 303.347656 742.28125 296.476562 742.28125 287.996094 C 742.28125 279.519531 735.414062 272.644531 726.929688 272.644531 L 527.347656 272.644531 L 527.347656 73.066406 C 527.347656 64.585938 520.480469 57.710938 511.996094 57.710938 C 503.511719 57.710938 496.644531 64.585938 496.644531 73.066406 L 496.644531 272.644531 L 297.066406 272.644531 C 288.578125 272.644531 281.710938 279.519531 281.710938 287.996094 C 281.710938 296.476562 288.578125 303.347656 297.066406 303.347656 Z M 297.066406 303.347656 " fill-opacity="1" fill-rule="nonzero"/></g></svg>