<svg xmlns="http://www.w3.org/2000/svg" xmlns:xlink="http://www.w3.org/1999/xlink" width="1366" zoomAndPan="magnify" viewBox="0 0 1024.5 576" height="768" preserveAspectRatio="xMidYMid meet" version="1.0"><defs><clipPath id="700cf24440"><path d="M 248.8125 57.714844 L 775.058594 57.714844 L 775.058594 517.988281 L 248.8125 517.988281 Z M 248.8125 57.714844 " clip-rule="nonzero"/></clipPath><clipPath id="160aff52dc"><path d="M 269.679688 131.253906 C 227.003906 201.5625 257.070312 270 294.855469 306.320312 L 515.78125 518.277344 L 732.042969 307.078125 C 767.1875 268.003906 780.65625 226.558594 773.175781 180.410156 C 762.839844 116.566406 710.230469 67.039062 645.242188 59.964844 C 605.382812 55.671875 566.878906 66.953125 536.828125 91.925781 C 528.742188 98.644531 521.511719 106.15625 515.210938 114.320312 C 507.734375 105.023438 498.96875 96.519531 489.054688 88.984375 C 454.496094 62.722656 410.507812 52.292969 368.253906 60.402344 C 328.234375 68.132812 292.316406 93.949219 269.679688 131.253906 Z M 269.679688 131.253906 " clip-rule="nonzero"/></clipPath></defs><g clip-path="url(#700cf24440)"><g clip-path="url(#160aff52dc)"><path stroke-linecap="butt" transform="matrix(0.749634, 0, 0, 0.749634, 248.814252, 57.713871)" fill="none" stroke-linejoin="miter" d="M 27.834159 98.101239 C -29.094655 191.891786 11.013454 283.186323 61.418252 331.637043 L 356.129734 614.384355 L 644.619431 332.647953 C 691.501677 280.523566 709.468776 225.236178 699.489949 163.674895 C 685.701973 78.508347 615.521903 12.439657 528.828568 3.002762 C 475.656795 -2.72399 424.293196 12.325018 384.205931 45.638145 C 373.419419 54.60085 363.774088 64.621364 355.368946 75.512093 C 345.395331 63.11021 333.702126 51.766134 320.476924 41.714355 C 274.376309 6.68164 215.696641 -7.231398 159.330601 3.58638 C 105.945182 13.898702 58.031183 48.337378 27.834159 98.101239 Z M 27.834159 98.101239 " stroke="#ffffff" stroke-width="2" stroke-opacity="1" stroke-miterlimit="4"/></g></g></svg>