<svg xmlns="http://www.w3.org/2000/svg" xmlns:xlink="http://www.w3.org/1999/xlink" width="1366" zoomAndPan="magnify" viewBox="0 0 1024.5 576" height="768" preserveAspectRatio="xMidYMid meet" version="1.0"><defs><clipPath id="5b8004dba4"><path d="M 248.8125 57 L 775.957031 57 L 775.957031 518.289062 L 248.8125 518.289062 Z M 248.8125 57 " clip-rule="nonzero"/></clipPath><clipPath id="87d39c4aff"><path d="M 269.683594 131.253906 C 227.003906 201.566406 257.070312 270.003906 294.855469 306.324219 L 515.785156 518.289062 L 732.054688 307.082031 C 767.199219 268.007812 780.667969 226.5625 773.1875 180.410156 C 762.851562 116.566406 710.242188 67.035156 645.25 59.964844 C 605.390625 55.671875 566.886719 66.953125 536.835938 91.925781 C 528.746094 98.644531 521.515625 106.15625 515.214844 114.320312 C 507.742188 105.023438 498.976562 96.519531 489.058594 88.984375 C 454.503906 62.71875 410.511719 52.292969 368.257812 60.402344 C 328.238281 68.132812 292.316406 93.949219 269.683594 131.253906 Z M 269.683594 131.253906 " clip-rule="nonzero"/></clipPath></defs><g clip-path="url(#5b8004dba4)"><g clip-path="url(#87d39c4aff)"><path fill="#ffffff" d="M 248.8125 57.710938 L 775.957031 57.710938 L 775.957031 518.289062 L 248.8125 518.289062 Z M 248.8125 57.710938 " fill-opacity="1" fill-rule="nonzero"/></g></g></svg>