<svg xmlns="http://www.w3.org/2000/svg" xmlns:xlink="http://www.w3.org/1999/xlink" width="1366" zoomAndPan="magnify" viewBox="0 0 1024.5 576" height="768" preserveAspectRatio="xMidYMid meet" version="1.0"><defs><clipPath id="318e0e5070"><path d="M 281.710938 57.710938 L 741.988281 57.710938 L 741.988281 517.988281 L 281.710938 517.988281 Z M 281.710938 57.710938 " clip-rule="nonzero"/></clipPath></defs><path fill="#ffffff" d="M 542.796875 281.953125 C 541.445312 281.554688 540.074219 281.253906 538.683594 281.050781 C 537.292969 280.84375 535.890625 280.738281 534.484375 280.730469 C 533.078125 280.71875 531.675781 280.808594 530.28125 280.996094 C 528.886719 281.183594 527.511719 281.46875 526.15625 281.847656 C 524.800781 282.226562 523.480469 282.699219 522.191406 283.265625 C 520.902344 283.828125 519.660156 284.480469 518.460938 285.222656 C 517.265625 285.960938 516.125 286.777344 515.042969 287.675781 C 513.957031 288.578125 512.945312 289.546875 511.996094 290.585938 C 511.050781 289.546875 510.035156 288.578125 508.953125 287.675781 C 507.867188 286.777344 506.730469 285.960938 505.53125 285.222656 C 504.332031 284.480469 503.089844 283.828125 501.800781 283.265625 C 500.511719 282.699219 499.191406 282.226562 497.835938 281.847656 C 496.480469 281.46875 495.105469 281.183594 493.710938 280.996094 C 492.316406 280.808594 490.914062 280.71875 489.507812 280.730469 C 488.101562 280.738281 486.703125 280.84375 485.308594 281.050781 C 483.917969 281.253906 482.546875 281.554688 481.195312 281.953125 C 450.394531 294.183594 453.5625 333.695312 502.28125 363.199219 C 503.007812 363.644531 503.761719 364.042969 504.542969 364.386719 C 505.324219 364.730469 506.125 365.015625 506.949219 365.25 C 507.769531 365.480469 508.601562 365.65625 509.449219 365.773438 C 510.292969 365.890625 511.144531 365.949219 511.996094 365.949219 C 512.851562 365.949219 513.699219 365.890625 514.546875 365.773438 C 515.390625 365.65625 516.222656 365.480469 517.046875 365.25 C 517.867188 365.015625 518.667969 364.730469 519.449219 364.386719 C 520.230469 364.042969 520.984375 363.644531 521.710938 363.199219 C 570.429688 333.695312 573.597656 294.183594 542.796875 281.953125 Z M 516.3125 354.492188 C 515.667969 354.898438 514.976562 355.203125 514.242188 355.414062 C 513.507812 355.625 512.761719 355.730469 511.996094 355.730469 C 511.234375 355.730469 510.484375 355.625 509.75 355.414062 C 509.015625 355.203125 508.324219 354.898438 507.679688 354.492188 C 472.703125 332.902344 470.90625 314.121094 471.839844 307.066406 C 471.957031 305.980469 472.167969 304.914062 472.480469 303.867188 C 472.789062 302.820312 473.195312 301.808594 473.6875 300.835938 C 474.183594 299.859375 474.761719 298.941406 475.425781 298.070312 C 476.089844 297.203125 476.824219 296.402344 477.632812 295.667969 C 478.445312 294.9375 479.3125 294.28125 480.242188 293.707031 C 481.171875 293.132812 482.144531 292.644531 483.160156 292.246094 C 484.179688 291.851562 485.222656 291.546875 486.296875 291.34375 C 487.367188 291.136719 488.453125 291.027344 489.542969 291.019531 C 491.097656 291.070312 492.625 291.285156 494.132812 291.660156 C 495.640625 292.035156 497.089844 292.5625 498.488281 293.246094 C 499.882812 293.925781 501.191406 294.746094 502.414062 295.707031 C 503.632812 296.664062 504.742188 297.742188 505.734375 298.933594 C 506.148438 299.347656 506.59375 299.710938 507.078125 300.035156 C 507.5625 300.359375 508.070312 300.628906 508.609375 300.851562 C 509.144531 301.074219 509.699219 301.242188 510.269531 301.355469 C 510.839844 301.46875 511.414062 301.527344 511.996094 301.527344 C 512.578125 301.527344 513.152344 301.46875 513.722656 301.355469 C 514.292969 301.242188 514.847656 301.074219 515.382812 300.851562 C 515.921875 300.628906 516.433594 300.359375 516.914062 300.035156 C 517.398438 299.710938 517.847656 299.347656 518.257812 298.933594 C 518.875 298.148438 519.546875 297.414062 520.269531 296.722656 C 520.996094 296.035156 521.765625 295.40625 522.582031 294.832031 C 523.402344 294.253906 524.253906 293.742188 525.148438 293.292969 C 526.039062 292.84375 526.960938 292.460938 527.910156 292.148438 C 528.855469 291.832031 529.824219 291.585938 530.804688 291.414062 C 531.789062 291.238281 532.78125 291.140625 533.78125 291.109375 C 534.78125 291.082031 535.773438 291.125 536.765625 291.242188 C 537.757812 291.359375 538.738281 291.550781 539.703125 291.8125 C 561.722656 300.949219 556.039062 330.3125 516.3125 354.492188 Z M 516.3125 354.492188 " fill-opacity="1" fill-rule="nonzero"/><path fill="#ffffff" d="M 469.105469 242.445312 L 469.105469 197.105469 C 471.839844 139.679688 552.945312 140.542969 554.886719 198.546875 L 554.886719 214.59375 L 479.398438 214.59375 L 479.398438 242.445312 C 479.390625 242.777344 479.351562 243.105469 479.28125 243.433594 C 479.210938 243.757812 479.109375 244.074219 478.976562 244.382812 C 478.84375 244.6875 478.683594 244.980469 478.496094 245.253906 C 478.308594 245.53125 478.09375 245.785156 477.855469 246.019531 C 477.617188 246.253906 477.359375 246.460938 477.078125 246.644531 C 476.800781 246.828125 476.507812 246.984375 476.199219 247.109375 C 475.890625 247.234375 475.570312 247.332031 475.242188 247.394531 C 474.914062 247.460938 474.585938 247.492188 474.25 247.492188 C 473.917969 247.492188 473.585938 247.460938 473.257812 247.394531 C 472.933594 247.332031 472.613281 247.234375 472.304688 247.109375 C 471.996094 246.984375 471.703125 246.828125 471.421875 246.644531 C 471.144531 246.460938 470.886719 246.253906 470.648438 246.019531 C 470.410156 245.785156 470.195312 245.53125 470.007812 245.253906 C 469.816406 244.980469 469.65625 244.6875 469.527344 244.382812 C 469.394531 244.074219 469.292969 243.757812 469.222656 243.433594 C 469.152344 243.105469 469.113281 242.777344 469.105469 242.445312 Z M 469.105469 242.445312 " fill-opacity="1" fill-rule="nonzero"/><g clip-path="url(#318e0e5070)"><path fill="#ffffff" d="M 511.996094 57.710938 C 508.226562 57.710938 504.460938 57.804688 500.695312 57.988281 C 496.933594 58.175781 493.175781 58.453125 489.425781 58.820312 C 485.675781 59.191406 481.933594 59.652344 478.207031 60.203125 C 474.480469 60.757812 470.765625 61.402344 467.070312 62.136719 C 463.375 62.871094 459.699219 63.699219 456.042969 64.613281 C 452.386719 65.53125 448.753906 66.535156 445.148438 67.628906 C 441.542969 68.722656 437.964844 69.902344 434.417969 71.175781 C 430.867188 72.445312 427.351562 73.800781 423.871094 75.242188 C 420.390625 76.683594 416.945312 78.210938 413.539062 79.820312 C 410.128906 81.433594 406.765625 83.128906 403.441406 84.902344 C 400.117188 86.679688 396.839844 88.539062 393.605469 90.476562 C 390.375 92.414062 387.191406 94.429688 384.058594 96.523438 C 380.925781 98.617188 377.84375 100.785156 374.816406 103.03125 C 371.789062 105.277344 368.820312 107.59375 365.90625 109.984375 C 362.992188 112.375 360.140625 114.835938 357.347656 117.367188 C 354.554688 119.898438 351.824219 122.496094 349.160156 125.160156 C 346.496094 127.824219 343.898438 130.554688 341.367188 133.347656 C 338.835938 136.140625 336.375 138.992188 333.984375 141.90625 C 331.59375 144.820312 329.277344 147.789062 327.03125 150.816406 C 324.785156 153.84375 322.617188 156.925781 320.523438 160.058594 C 318.429688 163.191406 316.414062 166.375 314.476562 169.605469 C 312.539062 172.839844 310.679688 176.117188 308.902344 179.441406 C 307.128906 182.765625 305.433594 186.128906 303.820312 189.539062 C 302.210938 192.945312 300.683594 196.390625 299.242188 199.871094 C 297.800781 203.351562 296.445312 206.867188 295.175781 210.417969 C 293.90625 213.964844 292.722656 217.542969 291.628906 221.148438 C 290.535156 224.753906 289.53125 228.386719 288.613281 232.042969 C 287.699219 235.699219 286.871094 239.375 286.136719 243.070312 C 285.402344 246.765625 284.757812 250.480469 284.203125 254.207031 C 283.652344 257.933594 283.191406 261.675781 282.820312 265.425781 C 282.453125 269.175781 282.175781 272.933594 281.988281 276.695312 C 281.804688 280.460938 281.710938 284.226562 281.710938 287.996094 C 281.710938 291.765625 281.804688 295.53125 281.988281 299.296875 C 282.175781 303.058594 282.453125 306.816406 282.820312 310.566406 C 283.191406 314.320312 283.652344 318.058594 284.203125 321.785156 C 284.757812 325.515625 285.402344 329.226562 286.136719 332.921875 C 286.871094 336.617188 287.699219 340.296875 288.613281 343.949219 C 289.53125 347.605469 290.535156 351.238281 291.628906 354.84375 C 292.722656 358.449219 293.90625 362.027344 295.175781 365.578125 C 296.445312 369.125 297.800781 372.640625 299.242188 376.121094 C 300.683594 379.605469 302.210938 383.046875 303.820312 386.457031 C 305.433594 389.863281 307.128906 393.226562 308.902344 396.550781 C 310.679688 399.875 312.539062 403.152344 314.476562 406.386719 C 316.414062 409.617188 318.429688 412.800781 320.523438 415.933594 C 322.617188 419.070312 324.785156 422.148438 327.03125 425.175781 C 329.277344 428.203125 331.59375 431.175781 333.984375 434.085938 C 336.375 437 338.835938 439.851562 341.367188 442.644531 C 343.898438 445.4375 346.496094 448.167969 349.160156 450.832031 C 351.824219 453.496094 354.554688 456.09375 357.347656 458.625 C 360.140625 461.15625 362.992188 463.617188 365.90625 466.007812 C 368.820312 468.398438 371.789062 470.71875 374.816406 472.960938 C 377.84375 475.207031 380.925781 477.375 384.058594 479.46875 C 387.191406 481.566406 390.375 483.582031 393.605469 485.519531 C 396.839844 487.457031 400.117188 489.3125 403.441406 491.089844 C 406.765625 492.867188 410.128906 494.558594 413.539062 496.171875 C 416.945312 497.78125 420.390625 499.308594 423.871094 500.75 C 427.351562 502.195312 430.867188 503.550781 434.417969 504.820312 C 437.964844 506.089844 441.542969 507.269531 445.148438 508.363281 C 448.753906 509.457031 452.386719 510.464844 456.042969 511.378906 C 459.699219 512.296875 463.375 513.121094 467.070312 513.855469 C 470.765625 514.589844 474.480469 515.234375 478.207031 515.789062 C 481.933594 516.339844 485.675781 516.800781 489.425781 517.171875 C 493.175781 517.542969 496.933594 517.816406 500.695312 518.003906 C 504.460938 518.1875 508.226562 518.28125 511.996094 518.28125 C 515.765625 518.28125 519.53125 518.1875 523.296875 518.003906 C 527.058594 517.816406 530.816406 517.542969 534.570312 517.171875 C 538.320312 516.800781 542.058594 516.339844 545.785156 515.789062 C 549.515625 515.234375 553.226562 514.589844 556.921875 513.855469 C 560.617188 513.121094 564.296875 512.296875 567.949219 511.378906 C 571.605469 510.464844 575.238281 509.457031 578.84375 508.363281 C 582.449219 507.269531 586.027344 506.089844 589.578125 504.820312 C 593.125 503.550781 596.640625 502.195312 600.121094 500.75 C 603.605469 499.308594 607.046875 497.78125 610.457031 496.171875 C 613.863281 494.558594 617.226562 492.867188 620.550781 491.089844 C 623.875 489.3125 627.152344 487.457031 630.386719 485.519531 C 633.617188 483.582031 636.800781 481.566406 639.933594 479.46875 C 643.070312 477.375 646.148438 475.207031 649.175781 472.960938 C 652.203125 470.71875 655.175781 468.398438 658.085938 466.007812 C 661 463.617188 663.851562 461.15625 666.644531 458.625 C 669.4375 456.09375 672.167969 453.496094 674.832031 450.832031 C 677.496094 448.167969 680.09375 445.4375 682.625 442.644531 C 685.15625 439.851562 687.617188 437 690.007812 434.085938 C 692.398438 431.175781 694.71875 428.203125 696.960938 425.175781 C 699.207031 422.148438 701.378906 419.070312 703.472656 415.933594 C 705.566406 412.800781 707.582031 409.617188 709.519531 406.386719 C 711.457031 403.152344 713.3125 399.875 715.089844 396.550781 C 716.867188 393.226562 718.558594 389.863281 720.171875 386.457031 C 721.78125 383.046875 723.308594 379.605469 724.75 376.121094 C 726.195312 372.640625 727.550781 369.125 728.820312 365.578125 C 730.089844 362.027344 731.269531 358.449219 732.363281 354.84375 C 733.457031 351.238281 734.464844 347.605469 735.378906 343.949219 C 736.296875 340.296875 737.121094 336.617188 737.855469 332.921875 C 738.589844 329.226562 739.234375 325.515625 739.789062 321.785156 C 740.339844 318.058594 740.800781 314.320312 741.171875 310.566406 C 741.542969 306.816406 741.816406 303.058594 742.003906 299.296875 C 742.1875 295.53125 742.28125 291.765625 742.28125 287.996094 C 742.28125 284.226562 742.1875 280.460938 742 276.699219 C 741.816406 272.933594 741.539062 269.175781 741.167969 265.425781 C 740.800781 261.675781 740.335938 257.9375 739.785156 254.207031 C 739.230469 250.480469 738.585938 246.769531 737.851562 243.074219 C 737.117188 239.375 736.289062 235.699219 735.375 232.042969 C 734.457031 228.390625 733.453125 224.757812 732.359375 221.152344 C 731.265625 217.546875 730.082031 213.96875 728.8125 210.421875 C 727.542969 206.871094 726.1875 203.355469 724.742188 199.875 C 723.300781 196.394531 721.773438 192.949219 720.164062 189.542969 C 718.550781 186.136719 716.855469 182.769531 715.082031 179.445312 C 713.304688 176.125 711.445312 172.84375 709.507812 169.613281 C 707.570312 166.378906 705.554688 163.199219 703.460938 160.0625 C 701.367188 156.929688 699.199219 153.851562 696.953125 150.824219 C 694.707031 147.796875 692.390625 144.828125 690 141.914062 C 687.609375 139 685.148438 136.148438 682.617188 133.355469 C 680.085938 130.5625 677.488281 127.835938 674.824219 125.167969 C 672.160156 122.503906 669.429688 119.90625 666.636719 117.375 C 663.84375 114.84375 660.992188 112.382812 658.078125 109.992188 C 655.167969 107.601562 652.195312 105.285156 649.167969 103.039062 C 646.140625 100.792969 643.0625 98.625 639.929688 96.53125 C 636.796875 94.4375 633.613281 92.421875 630.378906 90.484375 C 627.148438 88.546875 623.871094 86.6875 620.546875 84.914062 C 617.222656 83.136719 613.855469 81.441406 610.449219 79.832031 C 607.042969 78.21875 603.601562 76.691406 600.117188 75.25 C 596.636719 73.808594 593.121094 72.449219 589.574219 71.179688 C 586.023438 69.910156 582.449219 68.730469 578.839844 67.636719 C 575.234375 66.539062 571.605469 65.535156 567.949219 64.621094 C 564.292969 63.703125 560.617188 62.878906 556.921875 62.140625 C 553.222656 61.40625 549.511719 60.761719 545.785156 60.207031 C 542.058594 59.65625 538.316406 59.195312 534.566406 58.824219 C 530.816406 58.453125 527.058594 58.175781 523.296875 57.992188 C 519.53125 57.804688 515.765625 57.710938 511.996094 57.710938 Z M 580.363281 432.140625 L 443.632812 432.140625 C 418.300781 432.066406 402.898438 406.449219 406.136719 381.835938 L 420.960938 248.847656 C 421.09375 247.699219 421.277344 246.558594 421.515625 245.425781 C 421.75 244.296875 422.035156 243.175781 422.371094 242.070312 C 422.707031 240.964844 423.089844 239.875 423.523438 238.800781 C 423.953125 237.730469 424.433594 236.679688 424.960938 235.648438 C 425.488281 234.621094 426.0625 233.617188 426.679688 232.640625 C 427.296875 231.660156 427.953125 230.714844 428.65625 229.792969 C 429.359375 228.875 430.101562 227.988281 430.882812 227.136719 C 431.664062 226.285156 432.480469 225.46875 433.335938 224.691406 C 434.1875 223.910156 435.078125 223.171875 435.996094 222.472656 C 436.917969 221.773438 437.867188 221.117188 438.847656 220.503906 C 439.828125 219.886719 440.832031 219.316406 441.863281 218.792969 C 442.890625 218.269531 443.945312 217.792969 445.015625 217.363281 C 446.089844 216.933594 447.179688 216.550781 448.289062 216.21875 C 449.394531 215.886719 450.515625 215.601562 451.648438 215.371094 C 452.78125 215.140625 453.921875 214.957031 455.070312 214.828125 C 456.21875 214.699219 457.371094 214.621094 458.527344 214.59375 L 458.816406 214.59375 L 458.816406 197.105469 C 461.765625 126.582031 562.300781 126.726562 565.179688 197.105469 L 565.179688 214.59375 C 568.679688 214.5625 572.109375 215.042969 575.46875 216.03125 C 577.28125 216.574219 579.046875 217.246094 580.765625 218.046875 C 582.480469 218.847656 584.128906 219.765625 585.714844 220.804688 C 587.296875 221.847656 588.792969 222.996094 590.210938 224.253906 C 591.625 225.511719 592.941406 226.867188 594.160156 228.316406 C 595.378906 229.765625 596.484375 231.296875 597.480469 232.910156 C 598.472656 234.519531 599.347656 236.195312 600.097656 237.933594 C 600.847656 239.671875 601.46875 241.453125 601.960938 243.285156 C 602.453125 245.113281 602.808594 246.96875 603.03125 248.847656 L 617.855469 381.835938 C 621.09375 406.449219 605.695312 432.066406 580.363281 432.140625 Z M 580.363281 432.140625 " fill-opacity="1" fill-rule="nonzero"/></g></svg>