<svg xmlns="http://www.w3.org/2000/svg" xmlns:xlink="http://www.w3.org/1999/xlink" width="1366" zoomAndPan="magnify" viewBox="0 0 1024.5 576" height="768" preserveAspectRatio="xMidYMid meet" version="1.0"><defs><clipPath id="65d2d8d072"><path d="M 282.234375 57.710938 L 741.757812 57.710938 L 741.757812 517.988281 L 282.234375 517.988281 Z M 282.234375 57.710938 " clip-rule="nonzero"/></clipPath></defs><g clip-path="url(#65d2d8d072)"><path fill="#ffffff" d="M 509.507812 162.722656 C 524.480469 162.191406 537.046875 173.898438 537.617188 188.871094 C 537.617188 189.117188 537.617188 189.402344 537.617188 189.644531 L 537.617188 262.34375 L 610.3125 262.34375 C 625.285156 262.34375 637.445312 274.5 637.445312 289.472656 C 637.445312 304.445312 625.285156 316.601562 610.3125 316.601562 L 537.617188 316.601562 L 537.617188 389.300781 C 537.414062 404.273438 525.09375 416.265625 510.121094 416.0625 C 495.394531 415.859375 483.5625 403.988281 483.359375 389.300781 L 483.359375 316.601562 L 410.660156 316.601562 C 395.6875 316.601562 383.53125 304.445312 383.53125 289.472656 C 383.53125 274.5 395.6875 262.34375 410.660156 262.34375 L 483.359375 262.34375 L 483.359375 189.644531 C 483.441406 175.121094 494.984375 163.25 509.507812 162.722656 Z M 505.671875 57.753906 C 381.125 61.179688 282.03125 163.210938 282.234375 287.800781 C 281.949219 414.675781 384.589844 517.808594 511.507812 518.050781 C 638.382812 518.335938 741.472656 415.695312 741.757812 288.820312 C 741.757812 288.496094 741.757812 288.128906 741.757812 287.800781 C 741.960938 160.925781 639.238281 57.875 512.363281 57.671875 C 510.121094 57.671875 507.917969 57.671875 505.671875 57.753906 " fill-opacity="1" fill-rule="nonzero"/></g></svg>